Coordinates
version=1
nRows=16
nColumns=22
inDegrees=yes

Units are S.I. units (second, meters, Newtons, ...)
If the header above contains a line with 'inDegrees', this indicates whether rotational values are in degrees (yes) or radians (no).

endheader
time	pelvis_tilt	pelvis_list	pelvis_rotation	pelvis_tx	pelvis_ty	pelvis_tz	hip_flexion_r	hip_adduction_r	hip_rotation_r	knee_angle_r	ankle_angle_r	subtalar_angle_r	hip_flexion_l	hip_adduction_l	hip_rotation_l	knee_angle_l	ankle_angle_l	subtalar_angle_l	lumbar_extension	lumbar_bending	lumbar_rotation
      1.38000000	      5.91568781	     -2.81938018	      2.90305864	      1.15863475	      0.94612087	     -0.08852383	     -8.41968454	      5.29572404	     -8.09109724	     -7.83684694	      9.76929174	     -3.67384130	     -4.81640572	     -2.93096449	     -9.76261103	    -15.77313827	     20.41363992	     -8.70297222	    -11.35590872	      3.01315403	    -10.30651715
      1.39000000	      5.95581918	     -2.82357205	      2.81103066	      1.15755037	      0.94634825	     -0.08800720	     -8.32123871	      5.30753277	     -7.97735377	     -7.94980231	      9.72427594	     -3.69102580	     -4.66948950	     -2.96558116	     -9.78925636	    -16.00983108	     20.34704521	     -8.67932803	    -11.43570105	      3.05759205	    -10.21049933
      1.40000000	      6.01963318	     -2.82164363	      2.72771907	      1.15645242	      0.94660236	     -0.08749661	     -8.25389069	      5.31586732	     -7.87865750	     -8.05297451	      9.67958593	     -3.70782484	     -4.55705435	     -2.99329505	     -9.80215622	    -16.22750777	     20.27044618	     -8.67405809	    -11.52988565	      3.10079987	    -10.12453210
      1.41000000	      6.08683030	     -2.81604444	      2.64784929	      1.15530127	      0.94684796	     -0.08698631	     -8.19447417	      5.32299546	     -7.77880984	     -8.14125615	      9.63043946	     -3.73066803	     -4.44929639	     -3.01618810	     -9.82044685	    -16.43515866	     20.20721721	     -8.67625003	    -11.62668912	      3.14530647	    -10.03677627
      1.42000000	      6.16948836	     -2.81086389	      2.57577137	      1.15412495	      0.94710142	     -0.08645654	     -8.15261065	      5.33456149	     -7.70121399	     -8.22890111	      9.58187071	     -3.75551505	     -4.35631772	     -3.04160478	     -9.82154797	    -16.64244292	     20.14228316	     -8.69273466	    -11.72931239	      3.19106854	     -9.96234499
      1.43000000	      6.25545994	     -2.80939771	      2.51072306	      1.15288280	      0.94734054	     -0.08590383	     -8.11345373	      5.35416806	     -7.63430102	     -8.31204691	      9.52668603	     -3.78785494	     -4.25519761	     -3.07380596	     -9.81795914	    -16.86100113	     20.08877988	     -8.72211323	    -11.83463978	      3.24236591	     -9.89291091
      1.44000000	      6.34338458	     -2.81398229	      2.45476903	      1.15158883	      0.94756113	     -0.08531947	     -8.07607787	      5.38578667	     -7.58333070	     -8.39241147	      9.46650654	     -3.82788309	     -4.14228795	     -3.11657704	     -9.79988214	    -17.09814081	     20.04625596	     -8.76376513	    -11.93511985	      3.30044809	     -9.83677395
      1.45000000	      6.42878137	     -2.82476642	      2.41141223	      1.15022309	      0.94775541	     -0.08470435	     -8.03563247	      5.43028661	     -7.54723992	     -8.46669659	      9.39930178	     -3.87719452	     -4.00878932	     -3.17066488	     -9.76660823	    -17.35627776	     20.01508780	     -8.81812759	    -12.03204348	      3.36568505	     -9.79645818
      1.46000000	      6.48561916	     -2.84028856	      2.38340070	      1.14877763	      0.94788131	     -0.08406654	     -7.96322685	      5.48544778	     -7.51434702	     -8.53282982	      9.31203663	     -3.97279595	     -3.81800033	     -3.23348366	     -9.70251751	    -17.65071692	     20.03924357	     -8.91157371	    -12.09141157	      3.43351622	     -9.76806435
      1.47000000	      6.59048533	     -2.84692493	      2.36508722	      1.14727026	      0.94807305	     -0.08342943	     -7.94326440	      5.53490834	     -7.50668267	     -8.59437330	      9.26316794	     -4.01034013	     -3.68686140	     -3.28689831	     -9.62947706	    -17.91966282	     19.97328303	     -8.96734770	    -12.21051469	      3.49942672	     -9.75652779
      1.48000000	      6.68086827	     -2.86161816	      2.36729571	      1.14568865	      0.94822204	     -0.08279118	     -7.91499906	      5.59924832	     -7.50428311	     -8.62929454	      9.17940256	     -4.06570350	     -3.51361343	     -3.35287464	     -9.53014077	    -18.22384751	     19.94831710	     -9.04681958	    -12.31039589	      3.57740678	     -9.76002989
      1.49000000	      6.72757540	     -2.87582509	      2.38567522	      1.14401066	      0.94828553	     -0.08215155	     -7.83107732	      5.66497311	     -7.50731568	     -8.66516839	      9.07981755	     -4.18263849	     -3.26857770	     -3.41509662	     -9.37551585	    -18.55592313	     19.98680638	     -9.21077955	    -12.36009360	      3.65279422	     -9.76547788
      1.50000000	      6.83528333	     -2.88903083	      2.40733535	      1.14228910	      0.94844016	     -0.08149788	     -7.82960899	      5.73500937	     -7.50936126	     -8.66238081	      9.02384200	     -4.22164301	     -3.09447804	     -3.47949264	     -9.23826636	    -18.87171900	     19.91476916	     -9.28521856	    -12.48338046	      3.73385477	     -9.75871611
      1.51000000	      6.89319552	     -2.91446500	      2.46539182	      1.14046773	      0.94849644	     -0.08086032	     -7.77785703	      5.82416221	     -7.54159437	     -8.63119136	      8.89407121	     -4.30710991	     -2.82336411	     -3.55868883	     -9.03368691	    -19.24269449	     19.94738271	     -9.42298057	    -12.54758878	      3.82833273	     -9.75587352
      1.52000000	      6.96316778	     -2.94594103	      2.52512651	      1.13854630	      0.94856041	     -0.08020881	     -7.72613698	      5.91999001	     -7.56093997	     -8.61208113	      8.80127990	     -4.38589504	     -2.54888543	     -3.64391120	     -8.82143813	    -19.62946883	     19.93911941	     -9.55631278	    -12.63427584	      3.93385546	     -9.74619548
      1.53000000	      7.07465372	     -2.98031658	      2.58387372	      1.13653367	      0.94868376	     -0.07955355	     -7.71579371	      6.02005383	     -7.56055413	     -8.58864811	      8.74714024	     -4.42571512	     -2.31679206	     -3.73163552	     -8.61037719	    -20.00689754	     19.86511804	     -9.63255921	    -12.78118045	      4.05106865	     -9.70573839
